<svg width="1045" height="572" viewBox="0 0 1045 572" fill="none" xmlns="http://www.w3.org/2000/svg">
<path d="M51.8411 165.992L190.128 25.3452H1022.14V153.762L878.507 296.701V369.318H51.8411V165.992Z" fill="black"/>
<path d="M436.505 4.56824L184.234 4.00001L182.989 3.9972L182.108 4.87647L3.8809 182.732L3 183.611V184.855V563.864V566.864H6H368.813H440.943H509.666H548.855H601.095H601.106L714.667 568L715.987 568.013L716.888 567.05L897.37 374.172L898.18 373.307V372.122V302.589L1041.12 160.347L1042 159.467V158.22V7.02955V4.02955H1039L743.121 4.02954L743.116 4.02955L436.505 4.56824ZM150.85 174.501H147.85V177.501V365.843H48.8166V160.829L190.016 19.1619H426.91V365.843H329.592V178.879V175.879H326.592H292.611H289.611V178.879V365.843H187.832V177.501V174.501H184.832H150.85ZM631.58 273.677L632.85 272.781V271.226V19.1619H733.256V293.728L639.277 365.843H582.832L490.852 293.747V19.1619H590.466V271.226V272.748L591.695 273.647L609.558 286.717L611.298 287.989L613.059 286.746L631.58 273.677ZM885.156 299.228L884.285 300.106V301.342V369.122H785.938V19.1619H1029.14V154.228L885.156 299.228ZM887.228 73.757H884.228V76.757V194.631V197.631H887.228H914.345H917.345V194.631V76.757V73.757H914.345H887.228Z" fill="white" stroke="white" stroke-width="6"/>
<mask id="path-3-outside-1_553_23" maskUnits="userSpaceOnUse" x="42.7576" y="374.031" width="673" height="180" fill="black">
<rect fill="white" x="42.7576" y="374.031" width="673" height="180"/>
<path d="M72.9337 507.426C74.5764 509.061 76.3408 510.454 78.2268 511.605C80.1737 512.696 82.0293 513.605 83.7937 514.331C85.558 514.998 87.1094 515.482 88.4479 515.785C89.7864 516.088 90.699 516.24 91.1857 516.24C92.3417 516.24 93.8018 516.209 95.5662 516.149C97.3914 516.028 99.1253 515.755 100.768 515.331C102.411 514.846 103.81 514.089 104.966 513.059C106.183 512.029 106.791 510.576 106.791 508.698C106.791 507.002 106.457 505.669 105.787 504.7C105.118 503.67 104.145 502.822 102.867 502.155C101.589 501.428 100.008 500.792 98.1215 500.247C96.2963 499.702 94.2277 499.066 91.9158 498.339C84.615 496.401 78.5919 494.068 73.8463 491.342C69.1008 488.616 65.3287 485.587 62.5301 482.256C59.7923 478.863 57.8758 475.229 56.7807 471.352C55.6856 467.475 55.138 463.386 55.138 459.085C55.138 454.057 56.1419 449.483 58.1496 445.364C60.1573 441.245 63.0168 437.731 66.7281 434.824C70.4393 431.855 74.8806 429.584 80.052 428.009C85.2234 426.373 90.9728 425.555 97.3001 425.555C101.133 425.555 104.723 425.889 108.069 426.555C111.415 427.161 114.609 428.16 117.651 429.553C120.693 430.886 123.644 432.643 126.503 434.824C129.424 436.944 132.314 439.488 135.173 442.456C136.207 443.668 136.724 444.819 136.724 445.909C136.785 446.939 136.116 448.06 134.717 449.271C132.344 451.21 130.062 453.118 127.872 454.996C125.743 456.874 123.522 458.964 121.21 461.266C120.48 461.871 119.75 462.265 119.02 462.447C118.29 462.568 117.59 462.538 116.921 462.356C116.252 462.174 115.613 461.871 115.005 461.447C114.396 461.023 113.849 460.508 113.362 459.903C111.232 457.54 108.799 455.965 106.061 455.178C103.323 454.33 100.768 453.906 98.3953 453.906C95.4141 453.906 93.0413 454.42 91.277 455.45C89.5126 456.48 88.6913 458.055 88.813 460.175C88.9346 461.75 89.5126 462.992 90.5469 463.901C91.642 464.749 92.9501 465.446 94.4711 465.991C96.0529 466.536 97.6956 466.99 99.3991 467.354C101.163 467.657 102.776 468.02 104.236 468.444C109.711 470.201 114.731 472.109 119.294 474.169C123.857 476.228 127.811 478.773 131.158 481.801C134.504 484.77 137.089 488.344 138.915 492.524C140.801 496.703 141.744 501.792 141.744 507.789C141.744 513.786 140.527 519.147 138.093 523.872C135.721 528.597 132.435 532.565 128.237 535.776C124.039 538.986 119.05 541.44 113.271 543.136C107.552 544.832 101.376 545.68 94.7449 545.68C90.9728 545.68 87.1399 545.347 83.2461 544.681C79.3524 544.014 75.5803 542.954 71.9299 541.5C68.2795 539.986 64.8116 538.078 61.5262 535.776C58.2409 533.413 55.3206 530.566 52.7653 527.234C52.096 526.386 51.5789 525.508 51.2139 524.599C50.9097 523.63 50.7576 522.691 50.7576 521.782C50.8184 520.874 51.0009 520.056 51.3051 519.329C51.6702 518.542 52.2177 517.875 52.9478 517.33L64.7203 505.608C66.1805 504.397 67.4581 503.973 68.5533 504.336C69.7092 504.7 71.1694 505.729 72.9337 507.426Z"/>
<path d="M176.27 409.926C176.27 408.048 176.879 406.655 178.095 405.747C179.373 404.777 181.168 403.869 183.48 403.021L204.196 395.842C204.5 395.782 204.774 395.751 205.017 395.751C205.321 395.751 205.595 395.751 205.839 395.751C208.09 395.751 209.58 396.418 210.31 397.75C211.101 399.022 211.497 400.719 211.497 402.839L211.405 427.827H223.908C225.855 427.827 227.437 428.402 228.654 429.553C229.87 430.704 230.479 432.431 230.479 434.733V452.27C230.479 454.814 229.87 456.692 228.654 457.904C227.437 459.055 225.855 459.63 223.908 459.63H211.405L211.497 536.321C211.497 538.623 210.827 540.38 209.489 541.591C208.15 542.742 206.295 543.318 203.922 543.318H183.297C178.613 543.318 176.27 540.985 176.27 536.321L176.179 459.63H166.779C162.095 459.63 159.752 457.177 159.752 452.27V434.733C159.752 430.129 162.095 427.827 166.779 427.827H176.179L176.27 409.926Z"/>
<path d="M360.945 541.773C360.154 542.439 359.302 542.863 358.39 543.045C357.538 543.227 356.716 543.318 355.926 543.318H342.145C341.05 543.318 340.107 543.136 339.316 542.773C338.525 542.348 337.856 541.803 337.308 541.137C336.761 540.471 336.305 539.713 335.94 538.865C335.575 538.017 335.27 537.139 335.027 536.23L333.111 527.325C332.198 529.203 330.677 531.202 328.548 533.322C326.418 535.382 323.772 537.29 320.608 539.047C317.505 540.804 313.916 542.258 309.839 543.409C305.763 544.56 301.322 545.135 296.515 545.135C289.58 545.135 283.435 543.802 278.081 541.137C272.727 538.472 268.194 534.837 264.483 530.233C260.833 525.629 258.064 520.268 256.178 514.15C254.292 507.971 253.349 501.398 253.349 494.432V464.673V434.915C253.349 432.613 253.836 430.886 254.809 429.735C255.844 428.524 257.456 427.918 259.646 427.918H280.727C283.343 427.918 285.138 428.372 286.112 429.281C287.085 430.129 287.572 431.825 287.572 434.369V493.523C287.572 496.128 288.059 498.612 289.032 500.974C290.066 503.276 291.435 505.336 293.139 507.153C294.842 508.91 296.819 510.303 299.071 511.333C301.382 512.363 303.816 512.878 306.371 512.878C308.562 512.878 310.934 512.514 313.49 511.787C316.045 511.06 318.418 509.94 320.608 508.425C322.798 506.85 324.623 504.851 326.084 502.428C327.544 500.005 328.274 497.097 328.274 493.705V434.642C328.274 433.612 328.456 432.582 328.821 431.553C329.247 430.523 329.856 429.735 330.647 429.19C331.437 428.705 332.168 428.372 332.837 428.19C333.567 428.009 334.388 427.918 335.301 427.918H355.926C358.542 427.918 360.428 428.554 361.584 429.826C362.74 431.098 363.318 432.794 363.318 434.915V536.594C363.318 537.745 363.044 538.805 362.496 539.774C362.01 540.743 361.31 541.5 360.397 542.046L360.945 541.773Z"/>
<path d="M472.382 531.959C470.74 533.595 468.854 535.231 466.724 536.866C464.656 538.441 462.374 539.865 459.88 541.137C457.446 542.409 454.8 543.439 451.94 544.226C449.142 545.014 446.16 545.408 442.997 545.408C434.722 545.408 427.087 543.863 420.09 540.773C413.155 537.684 407.162 533.474 402.112 528.143C397.123 522.752 393.199 516.421 390.34 509.152C387.541 501.883 386.142 494.068 386.142 485.709C386.142 477.288 387.541 469.474 390.34 462.265C393.199 454.996 397.123 448.696 402.112 443.365C407.162 437.974 413.155 433.764 420.09 430.735C427.087 427.645 434.722 426.101 442.997 426.101C446.343 426.101 449.385 426.403 452.123 427.009C454.921 427.554 457.446 428.372 459.697 429.463C462.009 430.553 464.108 431.855 465.994 433.37C467.941 434.884 469.766 436.55 471.47 438.367V400.476C471.47 398.538 472.048 396.902 473.204 395.57C474.421 394.237 476.215 393.57 478.588 393.57H499.122C499.912 393.57 500.734 393.752 501.586 394.116C502.498 394.419 503.319 394.873 504.05 395.479C504.78 396.084 505.358 396.811 505.784 397.659C506.27 398.508 506.514 399.447 506.514 400.476V536.321C506.514 540.985 504.05 543.318 499.122 543.318H481.235C480.018 543.318 479.075 543.166 478.406 542.863C477.736 542.56 477.158 542.136 476.672 541.591C476.246 540.985 475.85 540.259 475.485 539.41C475.12 538.502 474.664 537.472 474.116 536.321L472.382 531.959ZM418.995 485.709C418.995 489.707 419.604 493.463 420.821 496.976C422.098 500.429 423.893 503.428 426.205 505.972C428.517 508.516 431.285 510.545 434.51 512.06C437.795 513.514 441.415 514.241 445.369 514.241C449.263 514.241 452.914 513.544 456.321 512.151C459.788 510.757 462.8 508.849 465.355 506.426C467.911 503.942 469.949 501.035 471.47 497.703C473.052 494.371 473.934 490.797 474.116 486.981V485.709C474.116 481.832 473.386 478.136 471.926 474.623C470.466 471.11 468.428 468.02 465.812 465.355C463.256 462.689 460.214 460.599 456.686 459.085C453.218 457.51 449.446 456.722 445.369 456.722C441.415 456.722 437.795 457.51 434.51 459.085C431.285 460.599 428.517 462.689 426.205 465.355C423.893 468.02 422.098 471.11 420.821 474.623C419.604 478.136 418.995 481.832 418.995 485.709Z"/>
<path d="M529.554 435.005C529.554 433.067 530.102 431.401 531.197 430.008C532.292 428.614 533.996 427.918 536.308 427.918H557.206C557.936 427.918 558.727 428.1 559.579 428.463C560.431 428.766 561.222 429.251 561.952 429.917C562.682 430.523 563.29 431.25 563.777 432.098C564.324 432.946 564.598 433.915 564.598 435.005V536.321C564.598 538.623 563.959 540.38 562.682 541.591C561.404 542.742 559.579 543.318 557.206 543.318H536.308C531.806 543.318 529.554 540.985 529.554 536.321V485.663V435.005ZM529.554 389.027C529.554 386.483 530.102 384.696 531.197 383.666C532.292 382.576 533.996 382.031 536.308 382.031H557.48C559.609 382.031 561.313 382.576 562.591 383.666C563.929 384.696 564.598 386.483 564.598 389.027V406.746C564.598 407.473 564.416 408.261 564.051 409.109C563.746 409.957 563.29 410.774 562.682 411.562C562.073 412.349 561.313 413.016 560.4 413.561C559.549 414.046 558.575 414.288 557.48 414.288H536.308C531.806 414.288 529.554 411.774 529.554 406.746V389.027Z"/>
<path d="M587.489 485.709C587.489 480.136 588.189 474.774 589.588 469.625C591.049 464.476 593.056 459.721 595.612 455.359C598.228 450.937 601.33 446.939 604.92 443.365C608.57 439.73 612.616 436.641 617.058 434.097C621.499 431.552 626.275 429.584 631.385 428.19C636.557 426.797 641.941 426.101 647.538 426.101C655.813 426.101 663.57 427.645 670.81 430.735C678.111 433.764 684.438 437.974 689.792 443.365C695.207 448.696 699.465 454.996 702.568 462.265C705.732 469.474 707.314 477.288 707.314 485.709C707.314 491.282 706.584 496.643 705.123 501.792C703.724 506.88 701.716 511.636 699.1 516.058C696.545 520.48 693.442 524.508 689.792 528.143C686.202 531.717 682.187 534.807 677.746 537.411C673.304 539.956 668.528 541.924 663.418 543.318C658.368 544.711 653.075 545.408 647.538 545.408C641.941 545.408 636.557 544.711 631.385 543.318C626.275 541.924 621.499 539.956 617.058 537.411C612.616 534.807 608.57 531.717 604.92 528.143C601.33 524.508 598.228 520.48 595.612 516.058C593.056 511.636 591.049 506.88 589.588 501.792C588.189 496.643 587.489 491.282 587.489 485.709ZM620.799 485.709C620.799 489.707 621.408 493.463 622.625 496.976C623.902 500.429 625.667 503.428 627.918 505.972C630.23 508.516 632.998 510.545 636.222 512.06C639.508 513.514 643.188 514.241 647.265 514.241C651.219 514.241 654.778 513.514 657.942 512.06C661.167 510.545 663.874 508.516 666.064 505.972C668.315 503.428 670.019 500.429 671.175 496.976C672.392 493.463 673 489.707 673 485.709C673 481.832 672.392 478.136 671.175 474.623C670.019 471.11 668.315 468.02 666.064 465.355C663.874 462.689 661.167 460.599 657.942 459.085C654.778 457.51 651.219 456.722 647.265 456.722C643.188 456.722 639.508 457.51 636.222 459.085C632.998 460.599 630.23 462.689 627.918 465.355C625.667 468.02 623.902 471.11 622.625 474.623C621.408 478.136 620.799 481.832 620.799 485.709Z"/>
</mask>
<path d="M72.9337 507.426C74.5764 509.061 76.3408 510.454 78.2268 511.605C80.1737 512.696 82.0293 513.605 83.7937 514.331C85.558 514.998 87.1094 515.482 88.4479 515.785C89.7864 516.088 90.699 516.24 91.1857 516.24C92.3417 516.24 93.8018 516.209 95.5662 516.149C97.3914 516.028 99.1253 515.755 100.768 515.331C102.411 514.846 103.81 514.089 104.966 513.059C106.183 512.029 106.791 510.576 106.791 508.698C106.791 507.002 106.457 505.669 105.787 504.7C105.118 503.67 104.145 502.822 102.867 502.155C101.589 501.428 100.008 500.792 98.1215 500.247C96.2963 499.702 94.2277 499.066 91.9158 498.339C84.615 496.401 78.5919 494.068 73.8463 491.342C69.1008 488.616 65.3287 485.587 62.5301 482.256C59.7923 478.863 57.8758 475.229 56.7807 471.352C55.6856 467.475 55.138 463.386 55.138 459.085C55.138 454.057 56.1419 449.483 58.1496 445.364C60.1573 441.245 63.0168 437.731 66.7281 434.824C70.4393 431.855 74.8806 429.584 80.052 428.009C85.2234 426.373 90.9728 425.555 97.3001 425.555C101.133 425.555 104.723 425.889 108.069 426.555C111.415 427.161 114.609 428.16 117.651 429.553C120.693 430.886 123.644 432.643 126.503 434.824C129.424 436.944 132.314 439.488 135.173 442.456C136.207 443.668 136.724 444.819 136.724 445.909C136.785 446.939 136.116 448.06 134.717 449.271C132.344 451.21 130.062 453.118 127.872 454.996C125.743 456.874 123.522 458.964 121.21 461.266C120.48 461.871 119.75 462.265 119.02 462.447C118.29 462.568 117.59 462.538 116.921 462.356C116.252 462.174 115.613 461.871 115.005 461.447C114.396 461.023 113.849 460.508 113.362 459.903C111.232 457.54 108.799 455.965 106.061 455.178C103.323 454.33 100.768 453.906 98.3953 453.906C95.4141 453.906 93.0413 454.42 91.277 455.45C89.5126 456.48 88.6913 458.055 88.813 460.175C88.9346 461.75 89.5126 462.992 90.5469 463.901C91.642 464.749 92.9501 465.446 94.4711 465.991C96.0529 466.536 97.6956 466.99 99.3991 467.354C101.163 467.657 102.776 468.02 104.236 468.444C109.711 470.201 114.731 472.109 119.294 474.169C123.857 476.228 127.811 478.773 131.158 481.801C134.504 484.77 137.089 488.344 138.915 492.524C140.801 496.703 141.744 501.792 141.744 507.789C141.744 513.786 140.527 519.147 138.093 523.872C135.721 528.597 132.435 532.565 128.237 535.776C124.039 538.986 119.05 541.44 113.271 543.136C107.552 544.832 101.376 545.68 94.7449 545.68C90.9728 545.68 87.1399 545.347 83.2461 544.681C79.3524 544.014 75.5803 542.954 71.9299 541.5C68.2795 539.986 64.8116 538.078 61.5262 535.776C58.2409 533.413 55.3206 530.566 52.7653 527.234C52.096 526.386 51.5789 525.508 51.2139 524.599C50.9097 523.63 50.7576 522.691 50.7576 521.782C50.8184 520.874 51.0009 520.056 51.3051 519.329C51.6702 518.542 52.2177 517.875 52.9478 517.33L64.7203 505.608C66.1805 504.397 67.4581 503.973 68.5533 504.336C69.7092 504.7 71.1694 505.729 72.9337 507.426Z" fill="black"/>
<path d="M176.27 409.926C176.27 408.048 176.879 406.655 178.095 405.747C179.373 404.777 181.168 403.869 183.48 403.021L204.196 395.842C204.5 395.782 204.774 395.751 205.017 395.751C205.321 395.751 205.595 395.751 205.839 395.751C208.09 395.751 209.58 396.418 210.31 397.75C211.101 399.022 211.497 400.719 211.497 402.839L211.405 427.827H223.908C225.855 427.827 227.437 428.402 228.654 429.553C229.87 430.704 230.479 432.431 230.479 434.733V452.27C230.479 454.814 229.87 456.692 228.654 457.904C227.437 459.055 225.855 459.63 223.908 459.63H211.405L211.497 536.321C211.497 538.623 210.827 540.38 209.489 541.591C208.15 542.742 206.295 543.318 203.922 543.318H183.297C178.613 543.318 176.27 540.985 176.27 536.321L176.179 459.63H166.779C162.095 459.63 159.752 457.177 159.752 452.27V434.733C159.752 430.129 162.095 427.827 166.779 427.827H176.179L176.27 409.926Z" fill="black"/>
<path d="M360.945 541.773C360.154 542.439 359.302 542.863 358.39 543.045C357.538 543.227 356.716 543.318 355.926 543.318H342.145C341.05 543.318 340.107 543.136 339.316 542.773C338.525 542.348 337.856 541.803 337.308 541.137C336.761 540.471 336.305 539.713 335.94 538.865C335.575 538.017 335.27 537.139 335.027 536.23L333.111 527.325C332.198 529.203 330.677 531.202 328.548 533.322C326.418 535.382 323.772 537.29 320.608 539.047C317.505 540.804 313.916 542.258 309.839 543.409C305.763 544.56 301.322 545.135 296.515 545.135C289.58 545.135 283.435 543.802 278.081 541.137C272.727 538.472 268.194 534.837 264.483 530.233C260.833 525.629 258.064 520.268 256.178 514.15C254.292 507.971 253.349 501.398 253.349 494.432V464.673V434.915C253.349 432.613 253.836 430.886 254.809 429.735C255.844 428.524 257.456 427.918 259.646 427.918H280.727C283.343 427.918 285.138 428.372 286.112 429.281C287.085 430.129 287.572 431.825 287.572 434.369V493.523C287.572 496.128 288.059 498.612 289.032 500.974C290.066 503.276 291.435 505.336 293.139 507.153C294.842 508.91 296.819 510.303 299.071 511.333C301.382 512.363 303.816 512.878 306.371 512.878C308.562 512.878 310.934 512.514 313.49 511.787C316.045 511.06 318.418 509.94 320.608 508.425C322.798 506.85 324.623 504.851 326.084 502.428C327.544 500.005 328.274 497.097 328.274 493.705V434.642C328.274 433.612 328.456 432.582 328.821 431.553C329.247 430.523 329.856 429.735 330.647 429.19C331.437 428.705 332.168 428.372 332.837 428.19C333.567 428.009 334.388 427.918 335.301 427.918H355.926C358.542 427.918 360.428 428.554 361.584 429.826C362.74 431.098 363.318 432.794 363.318 434.915V536.594C363.318 537.745 363.044 538.805 362.496 539.774C362.01 540.743 361.31 541.5 360.397 542.046L360.945 541.773Z" fill="black"/>
<path d="M472.382 531.959C470.74 533.595 468.854 535.231 466.724 536.866C464.656 538.441 462.374 539.865 459.88 541.137C457.446 542.409 454.8 543.439 451.94 544.226C449.142 545.014 446.16 545.408 442.997 545.408C434.722 545.408 427.087 543.863 420.09 540.773C413.155 537.684 407.162 533.474 402.112 528.143C397.123 522.752 393.199 516.421 390.34 509.152C387.541 501.883 386.142 494.068 386.142 485.709C386.142 477.288 387.541 469.474 390.34 462.265C393.199 454.996 397.123 448.696 402.112 443.365C407.162 437.974 413.155 433.764 420.09 430.735C427.087 427.645 434.722 426.101 442.997 426.101C446.343 426.101 449.385 426.403 452.123 427.009C454.921 427.554 457.446 428.372 459.697 429.463C462.009 430.553 464.108 431.855 465.994 433.37C467.941 434.884 469.766 436.55 471.47 438.367V400.476C471.47 398.538 472.048 396.902 473.204 395.57C474.421 394.237 476.215 393.57 478.588 393.57H499.122C499.912 393.57 500.734 393.752 501.586 394.116C502.498 394.419 503.319 394.873 504.05 395.479C504.78 396.084 505.358 396.811 505.784 397.659C506.27 398.508 506.514 399.447 506.514 400.476V536.321C506.514 540.985 504.05 543.318 499.122 543.318H481.235C480.018 543.318 479.075 543.166 478.406 542.863C477.736 542.56 477.158 542.136 476.672 541.591C476.246 540.985 475.85 540.259 475.485 539.41C475.12 538.502 474.664 537.472 474.116 536.321L472.382 531.959ZM418.995 485.709C418.995 489.707 419.604 493.463 420.821 496.976C422.098 500.429 423.893 503.428 426.205 505.972C428.517 508.516 431.285 510.545 434.51 512.06C437.795 513.514 441.415 514.241 445.369 514.241C449.263 514.241 452.914 513.544 456.321 512.151C459.788 510.757 462.8 508.849 465.355 506.426C467.911 503.942 469.949 501.035 471.47 497.703C473.052 494.371 473.934 490.797 474.116 486.981V485.709C474.116 481.832 473.386 478.136 471.926 474.623C470.466 471.11 468.428 468.02 465.812 465.355C463.256 462.689 460.214 460.599 456.686 459.085C453.218 457.51 449.446 456.722 445.369 456.722C441.415 456.722 437.795 457.51 434.51 459.085C431.285 460.599 428.517 462.689 426.205 465.355C423.893 468.02 422.098 471.11 420.821 474.623C419.604 478.136 418.995 481.832 418.995 485.709Z" fill="black"/>
<path d="M529.554 435.005C529.554 433.067 530.102 431.401 531.197 430.008C532.292 428.614 533.996 427.918 536.308 427.918H557.206C557.936 427.918 558.727 428.1 559.579 428.463C560.431 428.766 561.222 429.251 561.952 429.917C562.682 430.523 563.29 431.25 563.777 432.098C564.324 432.946 564.598 433.915 564.598 435.005V536.321C564.598 538.623 563.959 540.38 562.682 541.591C561.404 542.742 559.579 543.318 557.206 543.318H536.308C531.806 543.318 529.554 540.985 529.554 536.321V485.663V435.005ZM529.554 389.027C529.554 386.483 530.102 384.696 531.197 383.666C532.292 382.576 533.996 382.031 536.308 382.031H557.48C559.609 382.031 561.313 382.576 562.591 383.666C563.929 384.696 564.598 386.483 564.598 389.027V406.746C564.598 407.473 564.416 408.261 564.051 409.109C563.746 409.957 563.29 410.774 562.682 411.562C562.073 412.349 561.313 413.016 560.4 413.561C559.549 414.046 558.575 414.288 557.48 414.288H536.308C531.806 414.288 529.554 411.774 529.554 406.746V389.027Z" fill="black"/>
<path d="M587.489 485.709C587.489 480.136 588.189 474.774 589.588 469.625C591.049 464.476 593.056 459.721 595.612 455.359C598.228 450.937 601.33 446.939 604.92 443.365C608.57 439.73 612.616 436.641 617.058 434.097C621.499 431.552 626.275 429.584 631.385 428.19C636.557 426.797 641.941 426.101 647.538 426.101C655.813 426.101 663.57 427.645 670.81 430.735C678.111 433.764 684.438 437.974 689.792 443.365C695.207 448.696 699.465 454.996 702.568 462.265C705.732 469.474 707.314 477.288 707.314 485.709C707.314 491.282 706.584 496.643 705.123 501.792C703.724 506.88 701.716 511.636 699.1 516.058C696.545 520.48 693.442 524.508 689.792 528.143C686.202 531.717 682.187 534.807 677.746 537.411C673.304 539.956 668.528 541.924 663.418 543.318C658.368 544.711 653.075 545.408 647.538 545.408C641.941 545.408 636.557 544.711 631.385 543.318C626.275 541.924 621.499 539.956 617.058 537.411C612.616 534.807 608.57 531.717 604.92 528.143C601.33 524.508 598.228 520.48 595.612 516.058C593.056 511.636 591.049 506.88 589.588 501.792C588.189 496.643 587.489 491.282 587.489 485.709ZM620.799 485.709C620.799 489.707 621.408 493.463 622.625 496.976C623.902 500.429 625.667 503.428 627.918 505.972C630.23 508.516 632.998 510.545 636.222 512.06C639.508 513.514 643.188 514.241 647.265 514.241C651.219 514.241 654.778 513.514 657.942 512.06C661.167 510.545 663.874 508.516 666.064 505.972C668.315 503.428 670.019 500.429 671.175 496.976C672.392 493.463 673 489.707 673 485.709C673 481.832 672.392 478.136 671.175 474.623C670.019 471.11 668.315 468.02 666.064 465.355C663.874 462.689 661.167 460.599 657.942 459.085C654.778 457.51 651.219 456.722 647.265 456.722C643.188 456.722 639.508 457.51 636.222 459.085C632.998 460.599 630.23 462.689 627.918 465.355C625.667 468.02 623.902 471.11 622.625 474.623C621.408 478.136 620.799 481.832 620.799 485.709Z" fill="black"/>
<path d="M72.9337 507.426C74.5764 509.061 76.3408 510.454 78.2268 511.605C80.1737 512.696 82.0293 513.605 83.7937 514.331C85.558 514.998 87.1094 515.482 88.4479 515.785C89.7864 516.088 90.699 516.24 91.1857 516.24C92.3417 516.24 93.8018 516.209 95.5662 516.149C97.3914 516.028 99.1253 515.755 100.768 515.331C102.411 514.846 103.81 514.089 104.966 513.059C106.183 512.029 106.791 510.576 106.791 508.698C106.791 507.002 106.457 505.669 105.787 504.7C105.118 503.67 104.145 502.822 102.867 502.155C101.589 501.428 100.008 500.792 98.1215 500.247C96.2963 499.702 94.2277 499.066 91.9158 498.339C84.615 496.401 78.5919 494.068 73.8463 491.342C69.1008 488.616 65.3287 485.587 62.5301 482.256C59.7923 478.863 57.8758 475.229 56.7807 471.352C55.6856 467.475 55.138 463.386 55.138 459.085C55.138 454.057 56.1419 449.483 58.1496 445.364C60.1573 441.245 63.0168 437.731 66.7281 434.824C70.4393 431.855 74.8806 429.584 80.052 428.009C85.2234 426.373 90.9728 425.555 97.3001 425.555C101.133 425.555 104.723 425.889 108.069 426.555C111.415 427.161 114.609 428.16 117.651 429.553C120.693 430.886 123.644 432.643 126.503 434.824C129.424 436.944 132.314 439.488 135.173 442.456C136.207 443.668 136.724 444.819 136.724 445.909C136.785 446.939 136.116 448.06 134.717 449.271C132.344 451.21 130.062 453.118 127.872 454.996C125.743 456.874 123.522 458.964 121.21 461.266C120.48 461.871 119.75 462.265 119.02 462.447C118.29 462.568 117.59 462.538 116.921 462.356C116.252 462.174 115.613 461.871 115.005 461.447C114.396 461.023 113.849 460.508 113.362 459.903C111.232 457.54 108.799 455.965 106.061 455.178C103.323 454.33 100.768 453.906 98.3953 453.906C95.4141 453.906 93.0413 454.42 91.277 455.45C89.5126 456.48 88.6913 458.055 88.813 460.175C88.9346 461.75 89.5126 462.992 90.5469 463.901C91.642 464.749 92.9501 465.446 94.4711 465.991C96.0529 466.536 97.6956 466.99 99.3991 467.354C101.163 467.657 102.776 468.02 104.236 468.444C109.711 470.201 114.731 472.109 119.294 474.169C123.857 476.228 127.811 478.773 131.158 481.801C134.504 484.77 137.089 488.344 138.915 492.524C140.801 496.703 141.744 501.792 141.744 507.789C141.744 513.786 140.527 519.147 138.093 523.872C135.721 528.597 132.435 532.565 128.237 535.776C124.039 538.986 119.05 541.44 113.271 543.136C107.552 544.832 101.376 545.68 94.7449 545.68C90.9728 545.68 87.1399 545.347 83.2461 544.681C79.3524 544.014 75.5803 542.954 71.9299 541.5C68.2795 539.986 64.8116 538.078 61.5262 535.776C58.2409 533.413 55.3206 530.566 52.7653 527.234C52.096 526.386 51.5789 525.508 51.2139 524.599C50.9097 523.63 50.7576 522.691 50.7576 521.782C50.8184 520.874 51.0009 520.056 51.3051 519.329C51.6702 518.542 52.2177 517.875 52.9478 517.33L64.7203 505.608C66.1805 504.397 67.4581 503.973 68.5533 504.336C69.7092 504.7 71.1694 505.729 72.9337 507.426Z" stroke="white" stroke-width="16" mask="url(#path-3-outside-1_553_23)"/>
<path d="M176.27 409.926C176.27 408.048 176.879 406.655 178.095 405.747C179.373 404.777 181.168 403.869 183.48 403.021L204.196 395.842C204.5 395.782 204.774 395.751 205.017 395.751C205.321 395.751 205.595 395.751 205.839 395.751C208.09 395.751 209.58 396.418 210.31 397.75C211.101 399.022 211.497 400.719 211.497 402.839L211.405 427.827H223.908C225.855 427.827 227.437 428.402 228.654 429.553C229.87 430.704 230.479 432.431 230.479 434.733V452.27C230.479 454.814 229.87 456.692 228.654 457.904C227.437 459.055 225.855 459.63 223.908 459.63H211.405L211.497 536.321C211.497 538.623 210.827 540.38 209.489 541.591C208.15 542.742 206.295 543.318 203.922 543.318H183.297C178.613 543.318 176.27 540.985 176.27 536.321L176.179 459.63H166.779C162.095 459.63 159.752 457.177 159.752 452.27V434.733C159.752 430.129 162.095 427.827 166.779 427.827H176.179L176.27 409.926Z" stroke="white" stroke-width="16" mask="url(#path-3-outside-1_553_23)"/>
<path d="M360.945 541.773C360.154 542.439 359.302 542.863 358.39 543.045C357.538 543.227 356.716 543.318 355.926 543.318H342.145C341.05 543.318 340.107 543.136 339.316 542.773C338.525 542.348 337.856 541.803 337.308 541.137C336.761 540.471 336.305 539.713 335.94 538.865C335.575 538.017 335.27 537.139 335.027 536.23L333.111 527.325C332.198 529.203 330.677 531.202 328.548 533.322C326.418 535.382 323.772 537.29 320.608 539.047C317.505 540.804 313.916 542.258 309.839 543.409C305.763 544.56 301.322 545.135 296.515 545.135C289.58 545.135 283.435 543.802 278.081 541.137C272.727 538.472 268.194 534.837 264.483 530.233C260.833 525.629 258.064 520.268 256.178 514.15C254.292 507.971 253.349 501.398 253.349 494.432V464.673V434.915C253.349 432.613 253.836 430.886 254.809 429.735C255.844 428.524 257.456 427.918 259.646 427.918H280.727C283.343 427.918 285.138 428.372 286.112 429.281C287.085 430.129 287.572 431.825 287.572 434.369V493.523C287.572 496.128 288.059 498.612 289.032 500.974C290.066 503.276 291.435 505.336 293.139 507.153C294.842 508.91 296.819 510.303 299.071 511.333C301.382 512.363 303.816 512.878 306.371 512.878C308.562 512.878 310.934 512.514 313.49 511.787C316.045 511.06 318.418 509.94 320.608 508.425C322.798 506.85 324.623 504.851 326.084 502.428C327.544 500.005 328.274 497.097 328.274 493.705V434.642C328.274 433.612 328.456 432.582 328.821 431.553C329.247 430.523 329.856 429.735 330.647 429.19C331.437 428.705 332.168 428.372 332.837 428.19C333.567 428.009 334.388 427.918 335.301 427.918H355.926C358.542 427.918 360.428 428.554 361.584 429.826C362.74 431.098 363.318 432.794 363.318 434.915V536.594C363.318 537.745 363.044 538.805 362.496 539.774C362.01 540.743 361.31 541.5 360.397 542.046L360.945 541.773Z" stroke="white" stroke-width="16" mask="url(#path-3-outside-1_553_23)"/>
<path d="M472.382 531.959C470.74 533.595 468.854 535.231 466.724 536.866C464.656 538.441 462.374 539.865 459.88 541.137C457.446 542.409 454.8 543.439 451.94 544.226C449.142 545.014 446.16 545.408 442.997 545.408C434.722 545.408 427.087 543.863 420.09 540.773C413.155 537.684 407.162 533.474 402.112 528.143C397.123 522.752 393.199 516.421 390.34 509.152C387.541 501.883 386.142 494.068 386.142 485.709C386.142 477.288 387.541 469.474 390.34 462.265C393.199 454.996 397.123 448.696 402.112 443.365C407.162 437.974 413.155 433.764 420.09 430.735C427.087 427.645 434.722 426.101 442.997 426.101C446.343 426.101 449.385 426.403 452.123 427.009C454.921 427.554 457.446 428.372 459.697 429.463C462.009 430.553 464.108 431.855 465.994 433.37C467.941 434.884 469.766 436.55 471.47 438.367V400.476C471.47 398.538 472.048 396.902 473.204 395.57C474.421 394.237 476.215 393.57 478.588 393.57H499.122C499.912 393.57 500.734 393.752 501.586 394.116C502.498 394.419 503.319 394.873 504.05 395.479C504.78 396.084 505.358 396.811 505.784 397.659C506.27 398.508 506.514 399.447 506.514 400.476V536.321C506.514 540.985 504.05 543.318 499.122 543.318H481.235C480.018 543.318 479.075 543.166 478.406 542.863C477.736 542.56 477.158 542.136 476.672 541.591C476.246 540.985 475.85 540.259 475.485 539.41C475.12 538.502 474.664 537.472 474.116 536.321L472.382 531.959ZM418.995 485.709C418.995 489.707 419.604 493.463 420.821 496.976C422.098 500.429 423.893 503.428 426.205 505.972C428.517 508.516 431.285 510.545 434.51 512.06C437.795 513.514 441.415 514.241 445.369 514.241C449.263 514.241 452.914 513.544 456.321 512.151C459.788 510.757 462.8 508.849 465.355 506.426C467.911 503.942 469.949 501.035 471.47 497.703C473.052 494.371 473.934 490.797 474.116 486.981V485.709C474.116 481.832 473.386 478.136 471.926 474.623C470.466 471.11 468.428 468.02 465.812 465.355C463.256 462.689 460.214 460.599 456.686 459.085C453.218 457.51 449.446 456.722 445.369 456.722C441.415 456.722 437.795 457.51 434.51 459.085C431.285 460.599 428.517 462.689 426.205 465.355C423.893 468.02 422.098 471.11 420.821 474.623C419.604 478.136 418.995 481.832 418.995 485.709Z" stroke="white" stroke-width="16" mask="url(#path-3-outside-1_553_23)"/>
<path d="M529.554 435.005C529.554 433.067 530.102 431.401 531.197 430.008C532.292 428.614 533.996 427.918 536.308 427.918H557.206C557.936 427.918 558.727 428.1 559.579 428.463C560.431 428.766 561.222 429.251 561.952 429.917C562.682 430.523 563.29 431.25 563.777 432.098C564.324 432.946 564.598 433.915 564.598 435.005V536.321C564.598 538.623 563.959 540.38 562.682 541.591C561.404 542.742 559.579 543.318 557.206 543.318H536.308C531.806 543.318 529.554 540.985 529.554 536.321V485.663V435.005ZM529.554 389.027C529.554 386.483 530.102 384.696 531.197 383.666C532.292 382.576 533.996 382.031 536.308 382.031H557.48C559.609 382.031 561.313 382.576 562.591 383.666C563.929 384.696 564.598 386.483 564.598 389.027V406.746C564.598 407.473 564.416 408.261 564.051 409.109C563.746 409.957 563.29 410.774 562.682 411.562C562.073 412.349 561.313 413.016 560.4 413.561C559.549 414.046 558.575 414.288 557.48 414.288H536.308C531.806 414.288 529.554 411.774 529.554 406.746V389.027Z" stroke="white" stroke-width="16" mask="url(#path-3-outside-1_553_23)"/>
<path d="M587.489 485.709C587.489 480.136 588.189 474.774 589.588 469.625C591.049 464.476 593.056 459.721 595.612 455.359C598.228 450.937 601.33 446.939 604.92 443.365C608.57 439.73 612.616 436.641 617.058 434.097C621.499 431.552 626.275 429.584 631.385 428.19C636.557 426.797 641.941 426.101 647.538 426.101C655.813 426.101 663.57 427.645 670.81 430.735C678.111 433.764 684.438 437.974 689.792 443.365C695.207 448.696 699.465 454.996 702.568 462.265C705.732 469.474 707.314 477.288 707.314 485.709C707.314 491.282 706.584 496.643 705.123 501.792C703.724 506.88 701.716 511.636 699.1 516.058C696.545 520.48 693.442 524.508 689.792 528.143C686.202 531.717 682.187 534.807 677.746 537.411C673.304 539.956 668.528 541.924 663.418 543.318C658.368 544.711 653.075 545.408 647.538 545.408C641.941 545.408 636.557 544.711 631.385 543.318C626.275 541.924 621.499 539.956 617.058 537.411C612.616 534.807 608.57 531.717 604.92 528.143C601.33 524.508 598.228 520.48 595.612 516.058C593.056 511.636 591.049 506.88 589.588 501.792C588.189 496.643 587.489 491.282 587.489 485.709ZM620.799 485.709C620.799 489.707 621.408 493.463 622.625 496.976C623.902 500.429 625.667 503.428 627.918 505.972C630.23 508.516 632.998 510.545 636.222 512.06C639.508 513.514 643.188 514.241 647.265 514.241C651.219 514.241 654.778 513.514 657.942 512.06C661.167 510.545 663.874 508.516 666.064 505.972C668.315 503.428 670.019 500.429 671.175 496.976C672.392 493.463 673 489.707 673 485.709C673 481.832 672.392 478.136 671.175 474.623C670.019 471.11 668.315 468.02 666.064 465.355C663.874 462.689 661.167 460.599 657.942 459.085C654.778 457.51 651.219 456.722 647.265 456.722C643.188 456.722 639.508 457.51 636.222 459.085C632.998 460.599 630.23 462.689 627.918 465.355C625.667 468.02 623.902 471.11 622.625 474.623C621.408 478.136 620.799 481.832 620.799 485.709Z" stroke="white" stroke-width="16" mask="url(#path-3-outside-1_553_23)"/>
</svg>
